#!OML:ASF F:\VICON\USERDATA\INSTALL\rory3\rory3.ASF
:FULLY-SPECIFIED
:DEGREES
27
root 0.35249886805702857 17.874802812861823 0.3694648571926855 -1.6763752069168 -4.452238846058049 -6.484548984424984
lfemur -24.647019035107505 1.3529365108561247 -11.388441052837223
ltibia 52.27079805541604
lfoot -4.2103098048870065 0.48931644357454207
ltoes -9.057602702056794
rfemur -7.318024166418873 4.559636987418514 32.873320909651525
rtibia 27.47219164806426
rfoot 2.061912990551633 -10.442850780803358
rtoes 9.334023213883922
lowerback nan 1.4604392762090237 3.773467168456695
upperback 0.027397500495320623 2.6286562004781024 1.9277072748329234
thorax -6.079595361580475 1.2080210945715135 -1.2628023721248425
lowerneck -16.153855782159585 -3.823436835957316 -1.491823470200895
upperneck 21.3776420688912 -5.36082776675683 1.6666266970349948
head 9.663630310890134 -2.396174620924472 0.10016999148612463
lclavicle -2.592757785182755e-15 -2.7948062132746398e-15
lhumerus -37.03017615962465 8.710347365059691 82.54663821672514
lradius 22.58624714933264
lwrist 11.47057495139881
lhand -29.403097965618862 17.064037213316226
lfingers nan
lthumb -2.6734083491250873 46.536869918541385
rclavicle -2.574277950820853e-15 -2.7960837255616492e-15
rhumerus -24.386217152715847 -17.09124040973998 -73.00270510909496
rradius 30.07925934843768
rwrist 3.9969493203499553
rhand -18.509033050794727 nan
rfingers nan
rthumb 8.080130853410495 -4.5554661820312035
28
root 0.38478951865740585 17.901408198736 1.0048482984739362 -1.6979917763348609 -4.454751389334735 -6.6193595977571045
lfemur -24.90089504556979 0.9268448223468697 -11.978889253025779
ltibia 45.26877835195674
lfoot -4.648945539952763 0.5092796413369465
ltoes -10.477941209187467
rfemur -8.058870052324497 4.622137278996607 32.81113668475913
rtibia 31.62217046705282
rfoot 1.5408560381470089 -11.488734663498683
rtoes 9.878205238127507
lowerback nan 1.6544897905979261 4.0166755494148205
upperback 0.01454075229521476 2.8572726226069407 1.8138487224302313
thorax -5.892738108987384 1.3226571355359629 -1.4451588932472117
lowerneck -16.036873118506694 -3.8362681858107726 -1.5187182886040251
upperneck 21.309468405326147 -5.355002546492408 1.6829880007238496
head 9.675628753196284 -2.3752075062715488 0.1071357724275632
lclavicle -2.5623776403382814e-15 -2.778469135487409e-15
lhumerus -37.088672180569475 8.9430055245607 82.22537990830102
lradius 23.73799173699808
lwrist 11.219684020245953
lhand -29.59959972391089 17.450964378252202
lfingers nan
lthumb -2.903526999028995 47.00653910760344
rclavicle -2.567256992762438e-15 -2.7957869508550276e-15
rhumerus -24.33690530319637 -16.497625086320724 -72.6850144557729
rradius 31.847798799039023
rwrist 5.498476154340478
rhand -18.544794534531906 nan
rfingers nan
rthumb 8.274812327851349 -4.619283621866087
29
root 0.4112473430921359 17.923937112086612 1.4819236517024628 -1.6496958520079799 -4.331552386342454 -6.568633248811276
lfemur -24.4789066150716 0.4327136753851617 -12.683565075689607
ltibia 37.82824232455401
lfoot -3.6630850006259914 0.008537571084667128
ltoes -12.614663987050728
rfemur -8.632690765575182 4.670329920918636 32.65272426438962
rtibia 36.30503362899052
rfoot 1.0037671722997832 -12.47789748174117
rtoes 10.63074929253467
lowerback nan 1.87242727224474 4.158894710607281
upperback -0.10146788219507093 3.076901746742734 1.6323551297690544
thorax -5.8357336158168245 1.373020899927579 -1.7659475631687045
lowerneck -15.832996664748944 -3.878051131817623 -1.6526967955019418
upperneck 21.460074349895354 -5.434677787536505 1.6577069606521062
head 9.762244974464457 -2.4022451121645974 0.08412531246760344
lclavicle -2.562364480911073e-15 -2.7782555026573935e-15
lhumerus -36.761594064500805 8.407474790904322 82.2036831581825
lradius 24.72568264780557
lwrist 10.869656585777793
lhand -29.604098863285774 17.93630358994411
lfingers nan
lthumb -2.9289995545118535 47.529642517702854
rclavicle -2.5515293671477976e-15 -2.786984799154766e-15
rhumerus -24.355520673934986 -15.93419198542642 -72.48083213457707
rradius 33.21124215046764
rwrist 6.665570303426857
rhand -18.324753267626896 nan
rfingers nan
rthumb 8.430351608746799 -5.700889890395291
30
root 0.4363217943183806 17.939935074952103 2.8847713595234996 -1.7420582787491796 -4.095147084075563 -6.413683864835727
lfemur -22.500392824315774 -0.18890077488930146 -14.005730742958097
ltibia 30.282301586464843
lfoot -2.716819396028291 -1.503661129519445
ltoes -12.744308725345826
rfemur -8.74129702329246 4.559863082895292 32.38133935851826
rtibia 41.52493300687518
rfoot 0.31662592721872507 -12.962528267329638
rtoes 10.685991338308924
lowerback nan 1.9637654396700852 4.132953359916485
upperback -0.11434983457123178 3.0614263639075445 1.5858493887748442
thorax -5.761602751368008 1.3655249796431819 -1.933454113725719
lowerneck -15.644394540667214 -3.9237623179882553 -1.7067953572589294
upperneck 21.516482438344198 -5.511153794621865 1.8264313268881602
head 9.742971454834356 -2.42316982222002 0.1494857354588333
lclavicle -2.5590365925337136e-15 -2.7778461323164596e-15
lhumerus -36.30752811569319 7.772929019787637 82.44387119110124
lradius 25.814552521256168
lwrist 10.869417175854595
lhand -29.73722138587894 18.3752617881901
lfingers nan
lthumb -3.065125264438768 48.272463371842335
rclavicle -2.558788583892066e-15 -2.793795040295257e-15
rhumerus -24.577050779904802 -14.979402105020965 -72.7225983872171
rradius 34.00193432015257
rwrist 6.733145701926473
rhand -18.116014369244315 nan
rfingers nan
rthumb 8.667044625918606 -6.452980710649271
31
root 0.4464956528259132 17.94134891506847 3.7302528964468618 -2.0320793264962793 -4.112110518388281 -6.551653807828117
lfemur -20.28570222865722 -0.5718510664034762 -14.318307955646537
ltibia 23.96547586961899
lfoot -1.4819179302486019 -2.99928854298504
ltoes -13.650456543779802
rfemur -9.398014680941712 4.374210091924679 32.137029578217806
rtibia 46.9705059322741
rfoot -0.7031090651845151 -13.039854378205545
rtoes 10.421619071310928
lowerback nan 2.041602892735994 4.364979171177261
upperback -0.07904259842904252 3.182314752463153 1.6080315831533842
thorax -5.712457850430199 1.4164058011276741 -1.9705491851404087
lowerneck -15.868690995085194 -3.936871742045268 -1.7670008302176639
upperneck 21.809981052046677 -5.564957156326824 1.8950008442377675
head 9.95112561401782 -2.423338024900909 0.1517611326893183
lclavicle -2.5666640682422963e-15 -2.7816618356508726e-15
lhumerus -35.67204385217594 6.744110326348137 82.6173317024631
lradius 27.156541226138422
lwrist 10.824490248084125
lhand -30.15817636875072 19.794929322497516
lfingers nan
lthumb -3.3601573179228823 50.186370289828446
rclavicle -2.5544600953086904e-15 -2.791732927398568e-15
rhumerus -25.151085429285256 -13.957442911484844 -73.56211829678948
rradius 33.876642221436455
rwrist 6.43325121644544
rhand -17.89700506390586 nan
rfingers nan
rthumb 8.756358400479597 -7.1349053923849866
32
root 0.4712827537431815 17.940415473159373 6.135343715290233 -2.3678236914061506 -3.9396747149080973 -5.9469786290253115
lfemur -17.762746318161984 -0.7961857854627434 -15.04297914666817
ltibia 19.65072394471653
lfoot -1.1792611459575433 -5.032467368393823
ltoes -12.424505538707756
rfemur -9.851681271702809 4.079249489553776 31.473439558558308
rtibia 51.229599408530134
rfoot -1.8442178279271548 -12.484368248406579
rtoes 8.535449480517805
lowerback nan 2.0594915452065314 4.058762134307496
upperback -0.06311562378594049 3.194222372221307 1.578854933369587
thorax -5.7551249572698255 1.4509781358007945 -1.6288042131189886
lowerneck -15.995792719435581 -3.9282016875424164 -1.7901257720703296
upperneck 21.844322097627337 -5.570006165005885 2.0335466973786196
head 9.938810197140059 -2.430030202068679 0.2050271193443316
lclavicle -2.567736928707771e-15 -2.781671969093268e-15
lhumerus -34.57910606032516 5.515332544850355 82.69303492053209
lradius 28.012152356726286
lwrist 10.469005779802295
lhand -30.271073604096728 20.004771590640942
lfingers nan
lthumb -3.432249536512135 50.49855376099364
rclavicle -2.520084559456432e-15 -2.770718779105259e-15
rhumerus -25.81206392696116 -13.132456614167332 -74.8164498697592
rradius 33.00204864585903
rwrist 5.42495819289349
rhand -17.79279428771419 nan
rfingers nan
rthumb 8.915450353985385 -7.222553050992509
33
root 0.48797357231822397 17.929113658743134 7.689334366030646 -2.8146390989404244 -3.5694554808782524 -5.280684542366135
lfemur -15.275831077069075 -1.007091047470982 -15.992623053633004
ltibia 17.415330236441783
lfoot -1.5994822863301614 -6.213456928123479
ltoes -10.902447468529392
rfemur -10.589606162731174 3.631007679461284 30.482689325650462
rtibia 54.47806808400213
rfoot -2.8697773936979107 -11.19443328452915
rtoes 8.060844828631588
lowerback nan 1.9999669690631479 3.634214681227112
upperback -0.07396292939224222 3.0013874350986867 1.4704199003414011
thorax -5.835801787219271 1.3345248752177576 -1.562312838365145
lowerneck -16.117517919489593 -3.9377393196760706 -1.7787195255078536
upperneck 21.7231820573481 -5.602209665170163 2.2077683232318632
head 9.806575947671936 -2.4424503474193413 0.27936510249110535
lclavicle -2.566288262285504e-15 -2.779308054999575e-15
lhumerus -33.25589945146753 4.259166610349922 82.68764332667587
lradius 28.542403615394388
lwrist 10.029015340009403
lhand -30.225298024514203 20.245055116158344
lfingers nan
lthumb -3.3819586658826286 50.64663499636759
rclavicle -2.557701690208189e-15 -2.7900257245555515e-15
rhumerus -26.30150831423568 -12.69408739972841 -76.26883930939239
rradius 31.863136961546793
rwrist 4.584187226419587
rhand -17.683135971622544 nan
rfingers nan
rthumb 8.89210438530332 -7.649616288092931
34
root 0.5166406181064068 17.912602326250852 9.98314592972503 -3.2052888754440025 -2.9138660335873148 -4.5232104797244
lfemur -12.98158202633707 -1.3117516596539236 -17.145073890211066
ltibia 17.530190370158426
lfoot -2.759014305965451 -6.717851655817265
ltoes -9.640698845222405
rfemur -11.999215078596468 2.5501342389065607 28.58047221244769
rtibia 57.188878345916244
rfoot -4.458416774912401 -9.715174250767223
rtoes 8.072873177825945
lowerback nan 1.7685589422178531 3.2210709370265977
upperback -0.036227333001873564 2.6919544183350137 1.4502519748872436
thorax -5.831153213192643 1.2265076601031866 -1.266400230888577
lowerneck -16.253885354927768 -3.904182271439478 -1.7802779671295224
upperneck 21.62735908085941 -5.540020658988798 2.3219633294455337
head 9.754164056320713 -2.417913830919308 0.33594027360120937
lclavicle -2.5499103343883855e-15 -2.7702359584743503e-15
lhumerus -31.511318013027992 3.003304133337104 82.52957872382738
lradius 28.946200662608284
lwrist 9.872234903920097
lhand -30.280195273788625 20.760596683535475
lfingers nan
lthumb -3.365482688312824 51.22738481976589
rclavicle -2.5658470627228025e-15 -2.795114747131091e-15
rhumerus -26.87333660208646 -13.438067546697479 -77.61013036740889
rradius 30.3515458522716
rwrist 4.745780607421725
rhand -17.63546034700405 nan
rfingers nan
rthumb 8.978628220184532 -7.626180000488801
